<mxfile host="app.diagrams.net" modified="2021-01-02T08:17:49.428Z" agent="5.0 (Macintosh)" etag="Qg0pBkREet6tmqKCDA7s" version="14.1.7" type="github">
  <diagram id="6a731a19-8d31-9384-78a2-239565b7b9f0" name="Page-1">
    <mxGraphModel dx="786" dy="495" grid="1" gridSize="10" guides="1" tooltips="1" connect="1" arrows="1" fold="1" page="1" pageScale="1" pageWidth="1169" pageHeight="827" background="#ffffff" math="0" shadow="0">
      <root>
        <mxCell id="0" />
        <mxCell id="1" parent="0" />
        <mxCell id="40" value="end" style="shape=mxgraph.flowchart.terminator;strokeWidth=2;gradientColor=none;gradientDirection=north;fontStyle=0;html=1;" parent="1" vertex="1">
          <mxGeometry x="260" y="1910" width="120" height="30" as="geometry" />
        </mxCell>
        <mxCell id="43" value="" style="edgeStyle=elbowEdgeStyle;elbow=vertical;exitX=0.5;exitY=1;exitPerimeter=0;entryX=0.5;entryY=0;entryPerimeter=0;fontStyle=1;strokeColor=#003366;strokeWidth=1;html=1;" parent="1" target="40" edge="1">
          <mxGeometry width="100" height="100" as="geometry">
            <mxPoint x="320" y="1810" as="sourcePoint" />
            <mxPoint x="100" as="targetPoint" />
          </mxGeometry>
        </mxCell>
        <mxCell id="TLiev5LnO8ZMEe7Rfssw-55" value="Actor" style="shape=umlActor;verticalLabelPosition=bottom;verticalAlign=top;html=1;outlineConnect=0;" vertex="1" parent="1">
          <mxGeometry x="104" y="68" width="30" height="60" as="geometry" />
        </mxCell>
        <mxCell id="TLiev5LnO8ZMEe7Rfssw-56" value="Shell" style="rounded=0;whiteSpace=wrap;html=1;" vertex="1" parent="1">
          <mxGeometry x="440" y="60" width="120" height="60" as="geometry" />
        </mxCell>
        <mxCell id="TLiev5LnO8ZMEe7Rfssw-57" value="" style="elbow=horizontal;fontStyle=1;strokeColor=#003366;strokeWidth=1;html=1;entryX=-0.025;entryY=0.65;entryDx=0;entryDy=0;entryPerimeter=0;exitX=0.5;exitY=0.5;exitDx=0;exitDy=0;exitPerimeter=0;" edge="1" parent="1" source="TLiev5LnO8ZMEe7Rfssw-55" target="TLiev5LnO8ZMEe7Rfssw-56">
          <mxGeometry x="-42.2" y="-347" width="100" height="100" as="geometry">
            <mxPoint x="160" y="101" as="sourcePoint" />
            <mxPoint x="385" y="113" as="targetPoint" />
          </mxGeometry>
        </mxCell>
        <mxCell id="TLiev5LnO8ZMEe7Rfssw-61" value="Type characters and press enter" style="edgeLabel;html=1;align=center;verticalAlign=middle;resizable=0;points=[];" vertex="1" connectable="0" parent="TLiev5LnO8ZMEe7Rfssw-57">
          <mxGeometry relative="1" as="geometry">
            <mxPoint x="41" as="offset" />
          </mxGeometry>
        </mxCell>
        <mxCell id="TLiev5LnO8ZMEe7Rfssw-60" style="fontStyle=1;strokeColor=#003366;strokeWidth=1;html=1;exitX=0.5;exitY=1;exitDx=0;exitDy=0;entryX=0.5;entryY=0;entryDx=0;entryDy=0;" edge="1" parent="1" source="TLiev5LnO8ZMEe7Rfssw-56" target="TLiev5LnO8ZMEe7Rfssw-62">
          <mxGeometry relative="1" as="geometry">
            <mxPoint x="330" y="220" as="sourcePoint" />
            <mxPoint x="500" y="170" as="targetPoint" />
          </mxGeometry>
        </mxCell>
        <mxCell id="TLiev5LnO8ZMEe7Rfssw-62" value="Input has special characters" style="rhombus;whiteSpace=wrap;html=1;" vertex="1" parent="1">
          <mxGeometry x="405" y="170" width="190" height="110" as="geometry" />
        </mxCell>
      </root>
    </mxGraphModel>
  </diagram>
</mxfile>
